Coordinates
version=1
nRows=10
nColumns=40
inDegrees=yes

Units are S.I. units (second, meters, Newtons, ...)
Angles are in degrees.

endheader
time	pelvis_tilt	pelvis_list	pelvis_rotation	pelvis_tx	pelvis_ty	pelvis_tz	hip_flexion_r	hip_adduction_r	hip_rotation_r	knee_angle_r	knee_angle_r_beta	ankle_angle_r	subtalar_angle_r	mtp_angle_r	hip_flexion_l	hip_adduction_l	hip_rotation_l	knee_angle_l	knee_angle_l_beta	ankle_angle_l	subtalar_angle_l	mtp_angle_l	lumbar_extension	lumbar_bending	lumbar_rotation	arm_flex_r	arm_add_r	arm_rot_r	elbow_flex_r	pro_sup_r	wrist_flex_r	wrist_dev_r	arm_flex_l	arm_add_l	arm_rot_l	elbow_flex_l	pro_sup_l	wrist_flex_l	wrist_dev_l
      0.56000000	     -0.90772002	      2.45503380	     -5.13487177	     -0.38486861	      0.94568711	      1.06843777	    -11.95405427	     -3.79024323	    -25.62651409	    -14.17378882	     -0.24737928	     10.52095421	      8.05422136	    -14.21107965	     24.99644088	      1.11986080	     19.99250821	    -14.44204402	     -0.25206122	     -3.43944379	      2.58012750	      3.99868725	     -2.62214962	     -3.46488468	      8.34424342	      9.64827274	    -13.83511113	    -10.75756489	     31.67844716	     89.95437384	      0.00000000	      0.00000000	     -9.11511378	      8.27316861	     10.77883620	     12.89484496	     89.95437384	      0.00000000	      0.00000000
      0.57000000	     -1.08275729	      2.41749158	     -5.30565203	     -0.37498170	      0.94439372	      1.06704442	    -12.15194925	     -4.03800838	    -25.26410936	    -14.70383243	     -0.25663029	     10.25166756	      7.80561372	    -13.93481737	     24.84660573	      1.10466683	     19.67498945	    -14.90768628	     -0.26018821	     -3.45300538	      2.56143754	      3.92654768	     -2.21485177	     -3.35167504	      8.24176397	      9.14763411	    -13.68557551	    -10.71884773	     31.67980162	     89.95437384	      0.00000000	      0.00000000	     -9.30700946	      8.18653052	     10.74521357	     13.23576090	     89.95437384	      0.00000000	      0.00000000
      0.58000000	     -0.41777851	      2.72037729	     -5.78476414	     -0.36408884	      0.94447700	      1.06588929	    -13.42319634	     -4.90731792	    -25.69470170	    -14.86672085	     -0.25947323	      9.71093256	      8.61999287	    -13.99960783	     23.49637461	      0.73910173	     20.20968418	    -15.11824222	     -0.26386310	     -2.56667071	      2.77932894	      3.80094340	     -2.58742453	     -3.70573769	      8.43392196	      9.18376194	    -13.41884557	    -11.04068767	     30.56824628	     89.95437384	      0.00000000	      0.00000000	     -9.17261324	      8.15558883	     10.61884020	     13.01385769	     89.95437384	      0.00000000	      0.00000000
      0.59000000	     -0.60514213	      2.65142892	     -5.99680796	     -0.35363566	      0.94299236	      1.06436450	    -13.62652639	     -5.17093692	    -25.40948471	    -15.37708191	     -0.26838071	      9.47201670	      8.41064082	    -13.76108438	     23.21097787	      0.77048875	     19.92080926	    -15.45521383	     -0.26974437	     -2.63227100	      2.72544406	      3.74990963	     -2.10965922	     -3.53832047	      8.33576637	      8.60139532	    -13.30167333	    -11.00847061	     30.49469489	     89.95437384	      0.00000000	      0.00000000	     -9.39357700	      8.07743002	     10.57854614	     13.29831781	     89.95437384	      0.00000000	      0.00000000
      0.60000000	      0.42509539	      3.55880120	     -6.68791677	     -0.34173579	      0.94353731	      1.06280083	    -15.03851355	     -7.24883446	    -27.03048292	    -16.21982931	     -0.28308943	      9.10410896	     11.69637332	    -14.54175952	     21.07323178	     -0.30907111	     21.79828400	    -14.49719108	     -0.25302372	     -4.35310040	      2.50413308	      3.96790398	     -2.70889500	     -4.57391507	      8.74287412	      8.34305015	    -12.98541576	    -11.58586750	     29.71102947	     89.95437384	      0.00000000	      0.00000000	     -9.43058140	      8.16721562	     10.01011142	     13.45130085	     89.95437384	      0.00000000	      0.00000000
      0.61000000	      0.72901470	      4.05791071	     -7.17776573	     -0.33080170	      0.94310386	      1.06099680	    -15.60337942	     -8.45215619	    -27.01611357	    -16.94668548	     -0.29577546	      8.54497376	     12.03469249	    -14.64717918	     20.09769073	     -0.86693198	     23.20786519	    -13.88593203	     -0.24235523	     -6.16220714	      2.77491860	      4.06125037	     -2.63228327	     -5.06678192	      8.90797247	      8.04126804	    -12.79207904	    -11.73202546	     28.94613806	     89.95437384	      0.00000000	      0.00000000	     -9.48159875	      8.09968067	      9.87773216	     13.53493251	     89.95437384	      0.00000000	      0.00000000
      0.62000000	      1.22837176	      4.72544197	     -7.65936290	     -0.31976867	      0.94311590	      1.05905519	    -16.28120859	     -9.95265444	    -27.23414851	    -17.84908698	     -0.31152534	      7.95479033	     12.61918380	    -14.77454668	     19.03451123	     -1.68397673	     24.49384474	    -13.45501770	     -0.23483436	     -6.84935370	      3.10748393	      3.49080965	     -2.74001840	     -5.77724229	      9.02174548	      7.76720386	    -12.50783714	    -12.16438515	     28.16299881	     89.95437384	      0.00000000	      0.00000000	     -9.44156495	      8.07389074	      9.68408869	     13.59112078	     89.95437384	      0.00000000	      0.00000000
      0.63000000	      1.36999768	      5.04885163	     -7.78888708	     -0.30952003	      0.94284106	      1.05673972	    -16.52674264	    -10.83552859	    -27.02324362	    -18.81013526	     -0.32829879	      7.22677029	     12.25412966	    -14.44397661	     18.83447700	     -2.09629749	     24.42661526	    -14.56292220	     -0.25417094	     -6.65409847	      3.16963103	      3.14793317	     -2.60572733	     -6.06783667	      8.78270045	      7.51424298	    -12.35068785	    -12.11411187	     27.35385735	     89.95437384	      0.00000000	      0.00000000	     -9.26800757	      8.02119201	      9.41027701	     13.40312813	     89.95437384	      0.00000000	      0.00000000
      0.64000000	      1.46715832	      5.63390630	     -7.97866747	     -0.29894492	      0.94279023	      1.05423241	    -16.49452803	    -12.21170276	    -27.24401759	    -20.20233659	     -0.35259729	      6.27086253	     12.12360782	    -14.11978648	     18.61730769	     -2.84251566	     24.12498845	    -15.62546735	     -0.27271585	     -5.76942542	      2.36101567	      2.51250764	     -2.32014912	     -6.60506463	      8.59799865	      7.35013041	    -12.05891557	    -12.60035294	     26.22222760	     89.95437384	      0.00000000	      0.00000000	     -9.12495376	      7.97588342	      9.13786197	     13.23160181	     89.95437384	      0.00000000	      0.00000000
      0.65000000	      1.37037628	      6.50944215	     -8.16763370	     -0.28826792	      0.94272665	      1.05171938	    -16.00661310	    -14.09556922	    -27.77142947	    -22.13202998	     -0.38627679	      5.25861829	     13.07576888	    -14.00182605	     18.65472378	     -3.87203564	     23.76800130	    -16.42063834	     -0.28659420	     -5.55692404	      1.99439129	      1.64442711	     -1.78905398	     -7.45450425	      8.56950254	      6.97655777	    -11.55948764	    -14.16152274	     25.22694771	     89.95437384	      0.00000000	      0.00000000	     -9.03722277	      8.03797366	      8.66577056	     13.31934037	     89.95437384	      0.00000000	      0.00000000
